<svg width="51" height="22" viewBox="0 0 51 22" fill="none" xmlns="http://www.w3.org/2000/svg">
<path d="M4.17918 10.396V17H0.53918V0.178H4.17918V7.224H7.06518V0.178H10.7052V17H7.06518V10.396H4.17918ZM18.5887 4.312H21.5267V17H18.5887V16.064C18.0513 16.8613 17.1587 17.26 15.9107 17.26H15.3647C13.2153 17.26 12.1407 16.116 12.1407 13.828V7.484C12.1407 5.196 13.2153 4.052 15.3647 4.052H15.9107C17.1587 4.052 18.0513 4.45067 18.5887 5.248V4.312ZM18.0427 14.244V7.068C18.0427 6.92933 17.9907 6.808 17.8867 6.704C17.8 6.6 17.6873 6.548 17.5487 6.548H16.1187C15.98 6.548 15.8587 6.6 15.7547 6.704C15.668 6.808 15.6247 6.92933 15.6247 7.068V14.244C15.6247 14.3827 15.668 14.504 15.7547 14.608C15.8587 14.712 15.98 14.764 16.1187 14.764H17.5487C17.6873 14.764 17.8 14.712 17.8867 14.608C17.9907 14.504 18.0427 14.3827 18.0427 14.244ZM32.2425 4.312V17.962C32.2425 20.25 31.1679 21.394 29.0185 21.394H26.4185C24.2692 21.394 23.1945 20.25 23.1945 17.962V17.546H26.3405V18.378C26.3405 18.5167 26.3839 18.638 26.4705 18.742C26.5745 18.846 26.6959 18.898 26.8345 18.898H28.2645C28.4032 18.898 28.5159 18.846 28.6025 18.742C28.7065 18.638 28.7585 18.5167 28.7585 18.378V15.778C28.2212 16.194 27.5105 16.402 26.6265 16.402H26.0805C23.9312 16.402 22.8565 15.258 22.8565 12.97V7.484C22.8565 5.196 23.9312 4.052 26.0805 4.052H26.6265C27.8745 4.052 28.7672 4.45067 29.3045 5.248V4.312H32.2425ZM28.7585 13.386V7.068C28.7585 6.92933 28.7065 6.808 28.6025 6.704C28.5159 6.6 28.4032 6.548 28.2645 6.548H26.8345C26.6959 6.548 26.5745 6.6 26.4705 6.704C26.3839 6.808 26.3405 6.92933 26.3405 7.068V13.386C26.3405 13.5247 26.3839 13.646 26.4705 13.75C26.5745 13.854 26.6959 13.906 26.8345 13.906H28.2645C28.4032 13.906 28.5159 13.854 28.6025 13.75C28.7065 13.646 28.7585 13.5247 28.7585 13.386ZM40.0204 4.312H42.9584V17H40.0204V16.064C39.483 16.8613 38.5904 17.26 37.3424 17.26H36.7964C34.647 17.26 33.5724 16.116 33.5724 13.828V7.484C33.5724 5.196 34.647 4.052 36.7964 4.052H37.3424C38.5904 4.052 39.483 4.45067 40.0204 5.248V4.312ZM39.4744 14.244V7.068C39.4744 6.92933 39.4224 6.808 39.3184 6.704C39.2317 6.6 39.119 6.548 38.9804 6.548H37.5504C37.4117 6.548 37.2904 6.6 37.1864 6.704C37.0997 6.808 37.0564 6.92933 37.0564 7.068V14.244C37.0564 14.3827 37.0997 14.504 37.1864 14.608C37.2904 14.712 37.4117 14.764 37.5504 14.764H38.9804C39.119 14.764 39.2317 14.712 39.3184 14.608C39.4224 14.504 39.4744 14.3827 39.4744 14.244ZM49.6962 4.052H50.3722V7.432H48.6562C48.0669 7.432 47.7722 7.73533 47.7722 8.342V17H44.2882V4.312H47.4602V5.534C47.9629 4.546 48.7082 4.052 49.6962 4.052Z" fill="white"/>
</svg>
