<svg width="24" height="27" viewBox="0 0 24 27" fill="none" xmlns="http://www.w3.org/2000/svg">
<path d="M21.2845 6.85974C21.2595 7.0199 21.2308 7.18363 21.1986 7.35184C20.0918 13.0342 16.3054 14.9972 11.4694 14.9972H9.00714C8.41573 14.9972 7.91737 15.4267 7.82522 16.0101L6.56455 24.0053L6.20756 26.2716C6.14761 26.6546 6.44287 26.9999 6.82939 26.9999H11.1965C11.7137 26.9999 12.153 26.6241 12.2344 26.1141L12.2773 25.8923L13.0996 20.6742L13.1524 20.3879C13.2329 19.8761 13.6731 19.5004 14.1903 19.5004H14.8434C19.0745 19.5004 22.3868 17.7825 23.3549 12.8114C23.7593 10.7348 23.5499 9.00081 22.4799 7.7813C22.156 7.41357 21.7542 7.10847 21.2845 6.85974Z" fill="#D9D9D9"/>
<path d="M20.1267 6.39823C19.9576 6.34902 19.7832 6.30429 19.6042 6.26402C19.4244 6.22466 19.2401 6.18976 19.0504 6.15934C18.3865 6.05198 17.6591 6.00098 16.8798 6.00098H10.3018C10.1399 6.00098 9.98597 6.03766 9.84818 6.10387C9.54487 6.24971 9.3194 6.53691 9.26482 6.88854L7.86548 15.7517L7.82522 16.0102C7.91737 15.4269 8.41573 14.9974 9.00715 14.9974H11.4694C16.3054 14.9974 20.0918 13.0335 21.1986 7.35201C21.2317 7.1838 21.2595 7.02006 21.2845 6.85991C21.0045 6.71139 20.7012 6.58434 20.3746 6.47607C20.2941 6.44923 20.2108 6.42329 20.1267 6.39823Z" fill="#D9D9D9"/>
<path d="M9.2648 6.88846C9.31938 6.53683 9.54485 6.24963 9.84816 6.10468C9.98684 6.03847 10.1398 6.00179 10.3018 6.00179H16.8798C17.6591 6.00179 18.3865 6.05279 19.0504 6.16016C19.24 6.19058 19.4244 6.22547 19.6042 6.26484C19.7831 6.3051 19.9576 6.34984 20.1267 6.39905C20.2108 6.4241 20.294 6.45005 20.3755 6.47599C20.702 6.58425 21.0053 6.7122 21.2854 6.85983C21.6146 4.75992 21.2827 3.33015 20.1473 2.03549C18.8956 0.6102 16.6364 0 13.7456 0H5.35308C4.76257 0 4.25884 0.429466 4.16758 1.01372L0.671901 23.1715C0.603008 23.6099 0.941212 24.0054 1.3832 24.0054H6.56454L7.86546 15.7516L9.2648 6.88846Z" fill="#D9D9D9"/>
</svg>
