<svg width="29" height="23" viewBox="0 0 29 23" fill="none" xmlns="http://www.w3.org/2000/svg">
<path d="M5.73567 8.3996C7.3318 8.3996 9.04488 9.1886 9.9146 10.3902C10.7835 9.1886 12.499 8.24723 14.0952 8.24723C16.8073 8.24723 19.1867 10.2263 19.1867 14.0173L19.2476 16.5746C19.2476 20.5048 21.8395 21.008 22.9068 21.008C23.9742 21.008 26.4689 20.2931 26.4689 16.9386V9.8623C26.4689 8.64503 28.3047 8.64503 28.3047 9.8623V16.9386C28.2396 21.3605 25.0416 22.8348 22.9068 22.8348C20.7721 22.8348 17.4176 21.5722 17.4176 16.5746L17.3558 13.8699C17.3558 10.6867 15.1304 10.2272 14.0952 10.2272C12.4645 10.2272 10.8346 11.582 10.8346 13.8699V21.923C10.8346 22.4287 10.4244 22.8348 9.91954 22.8348H9.91131C9.40562 22.8348 8.99629 22.4287 8.99629 21.923V13.8699C8.99629 11.582 7.36557 10.2272 5.73567 10.2272C4.10495 10.2272 2.47423 11.087 2.47505 14.467V21.923C2.47505 22.4254 2.0649 22.8348 1.55921 22.8348C1.05435 22.8348 0.644196 22.4287 0.644196 21.923V14.467C0.644196 10.0196 3.09769 8.3996 5.73567 8.3996ZM22.7248 1.99531C20.3949 1.99531 19.0466 3.97771 19.0466 5.80692C19.0466 7.17985 17.2183 7.17985 17.2183 5.80692C17.2183 2.60477 19.6322 0.165283 22.7248 0.165283C25.8174 0.165283 28.2322 2.60477 28.2322 5.80692C28.2322 7.17985 26.3981 7.17985 26.3981 5.80692C26.3981 3.97771 25.0548 1.99531 22.7248 1.99531ZM22.9011 4.65059C23.5682 4.65059 24.1093 5.19087 24.1093 5.85798C24.1093 6.52591 23.5682 7.06619 22.9011 7.06619C22.234 7.06619 21.6937 6.52591 21.6937 5.85798C21.6937 5.19087 22.234 4.65059 22.9011 4.65059Z" fill="#D9D9D9"/>
</svg>
