<svg width="27" height="27" viewBox="0 0 27 27" fill="none" xmlns="http://www.w3.org/2000/svg">
<path d="M13.5 2.43242C17.1047 2.43242 17.5316 2.44619 18.9552 2.51114C20.2714 2.57116 20.9862 2.79109 21.4619 2.97597C22.0921 3.22086 22.5418 3.5134 23.0142 3.98578C23.4866 4.45821 23.7791 4.90793 24.024 5.53807C24.2089 6.01377 24.4288 6.72858 24.4889 8.04482C24.5538 9.46833 24.5676 9.89532 24.5676 13.4999C24.5676 17.1046 24.5538 17.5316 24.4889 18.9551C24.4288 20.2713 24.2089 20.9861 24.024 21.4618C23.7791 22.092 23.4866 22.5417 23.0142 23.0141C22.5418 23.4865 22.0921 23.7791 21.4619 24.024C20.9862 24.2088 20.2714 24.4288 18.9552 24.4888C17.5319 24.5537 17.1049 24.5675 13.5 24.5675C9.89509 24.5675 9.4682 24.5537 8.04484 24.4888C6.72861 24.4288 6.01379 24.2088 5.53809 24.024C4.90794 23.7791 4.45823 23.4865 3.98585 23.0141C3.51347 22.5417 3.22087 22.092 2.97598 21.4618C2.7911 20.9861 2.57117 20.2713 2.51115 18.9551C2.4462 17.5316 2.43243 17.1046 2.43243 13.4999C2.43243 9.89532 2.4462 9.46833 2.51115 8.04482C2.57117 6.72858 2.7911 6.01377 2.97598 5.53807C3.22087 4.90793 3.51341 4.45821 3.98585 3.98583C4.45823 3.5134 4.90794 3.22086 5.53809 2.97597C6.01379 2.79109 6.72861 2.57116 8.04484 2.51114C9.46836 2.44619 9.89536 2.43242 13.5 2.43242ZM13.5 0C9.83362 0 9.37389 0.0155406 7.93397 0.0812397C6.49705 0.146778 5.51569 0.37501 4.65699 0.708704C3.76924 1.0537 3.01638 1.51531 2.26582 2.26581C1.51532 3.01637 1.05371 3.76923 0.708759 4.65697C0.375011 5.51567 0.146778 6.49703 0.0812399 7.93394C0.0155406 9.37386 0 9.83359 0 13.4999C0 17.1663 0.0155406 17.6261 0.0812399 19.066C0.146778 20.5029 0.375011 21.4842 0.708759 22.3429C1.05371 23.2307 1.51532 23.9835 2.26582 24.7341C3.01638 25.4846 3.76924 25.9462 4.65699 26.2912C5.51569 26.6249 6.49705 26.8531 7.93397 26.9187C9.37389 26.9844 9.83362 26.9999 13.5 26.9999C17.1664 26.9999 17.6261 26.9844 19.066 26.9187C20.503 26.8531 21.4843 26.6249 22.343 26.2912C23.2308 25.9462 23.9836 25.4846 24.7342 24.7341C25.4847 23.9835 25.9463 23.2307 26.2913 22.3429C26.625 21.4842 26.8532 20.5029 26.9188 19.066C26.9845 17.6261 27 17.1663 27 13.4999C27 9.83359 26.9845 9.37386 26.9188 7.93394C26.8532 6.49703 26.625 5.51567 26.2913 4.65697C25.9463 3.76923 25.4847 3.01637 24.7342 2.26581C23.9836 1.51531 23.2308 1.0537 22.343 0.708704C21.4843 0.37501 20.503 0.146778 19.066 0.0812397C17.6261 0.0155406 17.1664 0 13.5 0Z" fill="#D9D9D9"/>
<path d="M13.5062 6.57385C9.67752 6.57385 6.57379 9.67757 6.57379 13.5062C6.57379 17.335 9.67752 20.4387 13.5062 20.4387C17.3349 20.4387 20.4387 17.335 20.4387 13.5062C20.4387 9.67757 17.3349 6.57385 13.5062 6.57385ZM13.5062 18.0062C11.0209 18.0062 9.00622 15.9915 9.00622 13.5062C9.00622 11.021 11.0209 9.00627 13.5062 9.00627C15.9915 9.00627 18.0062 11.021 18.0062 13.5062C18.0062 15.9915 15.9915 18.0062 13.5062 18.0062Z" fill="#D9D9D9"/>
<path d="M22.3322 6.29569C22.3322 7.19034 21.6069 7.91566 20.7121 7.91566C19.8175 7.91566 19.0922 7.19034 19.0922 6.29569C19.0922 5.40098 19.8175 4.67566 20.7121 4.67566C21.6069 4.67566 22.3322 5.40098 22.3322 6.29569Z" fill="#D9D9D9"/>
</svg>
