<svg width="26" height="25" viewBox="0 0 26 25" fill="none" xmlns="http://www.w3.org/2000/svg">
<path fill-rule="evenodd" clip-rule="evenodd" d="M5.93702 3.20244C5.93702 4.62693 4.85239 5.77974 3.15622 5.77974C1.52612 5.77974 0.441495 4.62693 0.475062 3.20244C0.441495 1.70872 1.5261 0.589478 3.18871 0.589478C4.85237 0.589478 5.90451 1.70872 5.93702 3.20244ZM0.611432 24.4082V7.81577H5.76813V24.4072H0.611432V24.4082Z" fill="#D9D9D9"/>
<path fill-rule="evenodd" clip-rule="evenodd" d="M9.90132 13.111C9.90132 11.0414 9.83314 9.27704 9.76495 7.81793H14.244L14.4821 10.091H14.5839C15.2626 9.03893 16.9588 7.44556 19.707 7.44556C23.0994 7.44556 25.6442 9.68509 25.6442 14.5691V24.4104H20.4875V15.2152C20.4875 13.0764 19.7417 11.6183 17.8755 11.6183C16.45 11.6183 15.6024 12.6023 15.2636 13.5516C15.1273 13.8914 15.0601 14.3656 15.0601 14.8418V24.4104H9.9034V13.111H9.90132Z" fill="#D9D9D9"/>
</svg>
