<svg width="36" height="33" viewBox="0 0 36 33" fill="none" xmlns="http://www.w3.org/2000/svg">
<g filter="url(#filter0_d_1_174)">
<path d="M8.11048 0.357033C6.9181 1.06492 4.56894 3.76365 4.54669 4.47143V5.64293C4.54669 7.12785 5.9348 8.43304 7.19507 8.43304C8.70829 8.43304 9.96919 7.17893 9.9693 5.69035C9.9693 7.17893 11.1869 8.43304 12.7003 8.43304C14.2138 8.43304 15.3923 7.17893 15.3923 5.69035C15.3923 7.17893 16.6871 8.43304 18.2004 8.43304H18.2279C19.7413 8.43304 21.036 7.17893 21.036 5.69035C21.036 7.17893 22.2146 8.43304 23.728 8.43304C25.2414 8.43304 26.4589 7.17893 26.4589 5.69035C26.4589 7.17893 27.7201 8.43304 29.2332 8.43304C30.4934 8.43304 31.8815 7.12806 31.8815 5.64293V4.47143C31.8593 3.76354 29.5101 1.06472 28.3181 0.357033C24.6121 0.226901 22.043 0.204342 18.214 0.204969C14.3851 0.205282 9.16511 0.265126 8.11017 0.357033H8.11048ZM15.3732 7.73371C15.2285 7.98593 15.0492 8.21674 14.8407 8.41936C14.2694 8.9779 13.4863 9.32422 12.6231 9.32422C11.7927 9.32495 10.9944 8.99973 10.4008 8.41894C10.1938 8.21622 10.0366 7.9994 9.89253 7.74697L9.89191 7.74739C9.74789 8.00024 9.54736 8.21695 9.33994 8.41988C8.74631 9.00025 7.94797 9.32526 7.11768 9.32453C7.01366 9.32453 6.90535 9.29581 6.81783 9.26574C6.69616 10.5326 6.64488 11.7433 6.62671 12.626L6.6265 12.631C6.6242 13.0793 6.62201 13.4479 6.61982 13.9601C6.64321 16.6181 6.35652 22.5752 7.79173 24.0389C10.0158 24.5575 14.1082 24.7936 18.2139 24.7951H18.2146C22.3202 24.7936 26.4126 24.5575 28.6366 24.0389C30.0718 22.5751 29.7852 16.618 29.8086 13.96C29.8061 13.4479 29.8041 13.0793 29.8019 12.6309L29.8015 12.6259C29.7836 11.7429 29.7322 10.5323 29.6105 9.26542C29.523 9.2955 29.4148 9.32433 29.3107 9.32433C28.4804 9.32506 27.682 9.00004 27.0884 8.41967C26.881 8.21674 26.6805 8.00014 26.5364 7.74718L26.5357 7.74676C26.3916 7.9992 26.2344 8.21601 26.0274 8.41873C25.434 8.99941 24.6356 9.32464 23.8052 9.3238C22.9422 9.3238 22.159 8.97738 21.5877 8.41894C21.3791 8.21633 21.1999 7.98551 21.0552 7.73329C20.9121 7.9852 20.7345 8.21601 20.5276 8.41894C19.934 8.99962 19.1355 9.32474 18.3051 9.32391C18.2751 9.32391 18.245 9.32265 18.2149 9.32171H18.2142C18.1841 9.32265 18.154 9.32391 18.1235 9.32391C17.2931 9.32474 16.4947 8.99973 15.901 8.41904C15.6943 8.21612 15.5166 7.9853 15.3735 7.7334L15.3732 7.73371ZM13.091 10.6848L13.0908 10.6858H13.0925C13.9963 10.6877 14.7991 10.6858 15.7939 11.7716C16.5769 11.6895 17.3949 11.6484 18.2138 11.6497H18.2145C19.0333 11.6485 19.8514 11.6895 20.6345 11.7716C21.6292 10.6857 22.4322 10.6876 23.3359 10.6858H23.3375L23.3372 10.6848C23.7643 10.6848 25.4724 10.6848 26.6626 14.0276L27.941 18.6134C28.8884 22.025 27.6378 22.1085 26.0776 22.1114C23.7641 22.0253 22.483 20.3451 22.483 18.6652C21.2024 18.8751 19.7084 18.9801 18.2144 18.9802H18.2137C16.7195 18.9802 15.2255 18.8751 13.945 18.6652C13.945 20.3451 12.6638 22.0253 10.3504 22.1114C8.79028 22.1085 7.53972 22.0251 8.48709 18.6134L9.76585 14.0277C10.956 10.6849 12.6642 10.6849 13.0912 10.6849L13.091 10.6848ZM18.2138 13.3118V13.3125C18.2116 13.3147 15.7782 15.5494 15.3407 16.3442L16.9343 16.2804V17.6701C16.9343 17.7352 17.5736 17.7086 18.2138 17.679H18.2145C18.8544 17.7086 19.4939 17.7352 19.4939 17.6701V16.2804L21.0874 16.3442C20.6498 15.5494 18.2144 13.3125 18.2144 13.3125V13.3118L18.214 13.312L18.2138 13.3118Z" fill="#D9D9D9"/>
</g>
<defs>
<filter id="filter0_d_1_174" x="0.546692" y="0.204956" width="35.3349" height="32.5901" filterUnits="userSpaceOnUse" color-interpolation-filters="sRGB">
<feFlood flood-opacity="0" result="BackgroundImageFix"/>
<feColorMatrix in="SourceAlpha" type="matrix" values="0 0 0 0 0 0 0 0 0 0 0 0 0 0 0 0 0 0 127 0" result="hardAlpha"/>
<feOffset dy="4"/>
<feGaussianBlur stdDeviation="2"/>
<feComposite in2="hardAlpha" operator="out"/>
<feColorMatrix type="matrix" values="0 0 0 0 0 0 0 0 0 0 0 0 0 0 0 0 0 0 0.25 0"/>
<feBlend mode="normal" in2="BackgroundImageFix" result="effect1_dropShadow_1_174"/>
<feBlend mode="normal" in="SourceGraphic" in2="effect1_dropShadow_1_174" result="shape"/>
</filter>
</defs>
</svg>
