<svg width="22" height="27" viewBox="0 0 22 27" fill="none" xmlns="http://www.w3.org/2000/svg">
<path fill-rule="evenodd" clip-rule="evenodd" d="M11.9654 0C4.59668 0 0.881531 5.2829 0.881531 9.68827C0.881531 12.3555 1.89153 14.729 4.05751 15.6124C4.41275 15.7576 4.73085 15.6175 4.83379 15.2243C4.90551 14.9518 5.07511 14.2649 5.15021 13.9789C5.25399 13.5899 5.21349 13.4541 4.92661 13.1149C4.30221 12.3782 3.9031 11.4248 3.9031 10.0739C3.9031 6.15368 6.83608 2.64526 11.5393 2.64526C15.7042 2.64526 17.9925 5.19092 17.9925 8.58882C17.9925 13.0608 16.013 16.8351 13.0758 16.8351C11.4532 16.8351 10.239 15.4926 10.628 13.8473C11.0938 11.883 11.9975 9.76169 11.9975 8.34414C11.9975 7.0751 11.3157 6.01615 9.90575 6.01615C8.24688 6.01615 6.91455 7.73154 6.91455 10.03C6.91455 11.494 7.409 12.4846 7.409 12.4846C7.409 12.4846 5.71132 19.6761 5.41431 20.9359C4.82198 23.4444 5.32572 26.5191 5.3679 26.8296C5.39322 27.0136 5.62947 27.0575 5.73663 26.9174C5.88936 26.7183 7.86464 24.2789 8.53629 21.8421C8.72614 21.1527 9.6273 17.5793 9.6273 17.5793C10.1656 18.607 11.741 19.5124 13.4159 19.5124C18.4018 19.5124 21.7836 14.967 21.7836 8.88247C21.7836 4.28387 17.8879 0 11.9654 0Z" fill="#D9D9D9"/>
</svg>
