<svg width="32" height="15" viewBox="0 0 32 15" fill="none" xmlns="http://www.w3.org/2000/svg">
<path fill-rule="evenodd" clip-rule="evenodd" d="M2.06038 13.4929C2.12477 13.4929 2.17885 13.4406 2.18829 13.3676L2.53256 10.6529L2.18829 7.8773C2.17799 7.80347 2.12477 7.75281 2.06038 7.75281C1.99427 7.75281 1.94017 7.80518 1.93244 7.87815L1.62766 10.6529L1.93244 13.3667C1.94103 13.4405 1.99427 13.4929 2.06038 13.4929ZM0.917662 12.461C0.980335 12.461 1.03186 12.4112 1.0413 12.3408L1.30917 10.6529L1.0413 8.93586C1.03186 8.86461 0.981193 8.81567 0.917662 8.81567C0.853273 8.81567 0.801771 8.86546 0.793185 8.93672L0.566528 10.6538L0.793185 12.3408C0.801771 12.412 0.853273 12.461 0.917662 12.461ZM3.42886 7.36046C3.41942 7.27289 3.35504 7.20937 3.27434 7.20937C3.19278 7.20937 3.12664 7.27289 3.11892 7.36046C3.11892 7.36132 2.83045 10.6538 2.83045 10.6538L3.11892 13.826C3.12664 13.9153 3.19278 13.978 3.27434 13.978C3.35504 13.978 3.41942 13.9153 3.42886 13.8269L3.75768 10.6538L3.42886 7.36046ZM4.49859 14.105C4.59303 14.105 4.67115 14.0295 4.67974 13.9282L4.98879 10.6555L4.67974 7.27032C4.67115 7.16988 4.59303 7.09261 4.49859 7.09261C4.40243 7.09261 4.32517 7.16901 4.31744 7.27117L4.04527 10.6555L4.31744 13.9282C4.32517 14.0295 4.40243 14.105 4.49859 14.105ZM5.73227 14.1591C5.84302 14.1591 5.93232 14.0716 5.94091 13.9548L5.94004 13.9557L6.2328 10.6555L5.94004 7.51501C5.93231 7.39996 5.84302 7.31154 5.73227 7.31154C5.62152 7.31154 5.5331 7.39996 5.52537 7.51672L5.26869 10.6555L5.52537 13.9557C5.53224 14.0716 5.62152 14.1591 5.73227 14.1591ZM7.48367 10.6563L7.21153 5.54897C7.2038 5.41934 7.10164 5.31718 6.97801 5.31718C6.85267 5.31718 6.74964 5.41934 6.74449 5.54897L6.50324 10.6563L6.74449 13.9565C6.7505 14.0853 6.85352 14.1875 6.97801 14.1875C7.1025 14.1875 7.20466 14.0862 7.21153 13.9557V13.9574L7.48367 10.6563ZM8.23059 14.1926C8.36967 14.1926 8.48472 14.0793 8.49159 13.9351V13.9376L8.74657 10.6572L8.49159 4.38138C8.48472 4.23715 8.36967 4.12382 8.23059 4.12382C8.09065 4.12382 7.97645 4.23715 7.97044 4.38138C7.97044 4.38224 7.74381 10.6572 7.74381 10.6572L7.97044 13.9359C7.97645 14.0793 8.09065 14.1926 8.23059 14.1926ZM9.49435 3.57436C9.3381 3.57436 9.21274 3.69971 9.20759 3.85939L8.99725 10.6572L9.20759 13.9033C9.21274 14.0613 9.3381 14.1866 9.49435 14.1866C9.64888 14.1866 9.77421 14.0613 9.78108 13.9016V13.9042L10.0172 10.6572L9.78108 3.85939C9.77507 3.69971 9.64888 3.57436 9.49435 3.57436ZM10.7684 14.1926C10.9384 14.1926 11.0766 14.057 11.0818 13.8818V13.8835L11.3007 10.6581L11.0818 3.63017C11.0766 3.45503 10.9384 3.31853 10.7684 3.31853C10.5975 3.31853 10.4602 3.45503 10.4559 3.63017L10.2602 10.6581L10.4559 13.8835C10.4593 14.057 10.5975 14.1926 10.7684 14.1926ZM12.0527 14.1892C12.2373 14.1892 12.3876 14.0415 12.3919 13.8509V13.8543L12.5936 10.6572L12.3919 3.80875C12.3876 3.61987 12.2373 3.47134 12.0527 3.47134C11.8664 3.47134 11.7162 3.61987 11.7128 3.8096L11.5342 10.6572L11.7128 13.8526C11.7162 14.0415 11.8664 14.1892 12.0527 14.1892ZM13.896 10.6589L13.7114 4.0603C13.7071 3.85597 13.5466 3.69629 13.3457 3.69629C13.1448 3.69629 12.9834 3.85683 12.9791 4.0603L12.8168 10.6589L12.9791 13.8338C12.9834 14.0355 13.1439 14.196 13.3457 14.196C13.5457 14.196 13.7071 14.0355 13.7114 13.832V13.8338L13.896 10.6589ZM14.6506 14.2021C14.8618 14.2021 15.0387 14.0269 15.0413 13.8114V13.814L15.207 10.6598L15.0413 2.80771C15.0387 2.59222 14.8618 2.41621 14.6506 2.41621C14.4369 2.41621 14.2609 2.59222 14.2583 2.80771L14.1098 10.6572C14.1098 10.6632 14.2583 13.814 14.2583 13.814C14.2609 14.0269 14.4369 14.2021 14.6506 14.2021ZM15.9487 1.6796C15.7195 1.6796 15.5324 1.86676 15.5298 2.09685L15.3581 10.6606L15.5298 13.7685C15.5324 13.996 15.7204 14.1823 15.9487 14.1823C16.1754 14.1823 16.3634 13.9951 16.366 13.7659V13.7685L16.5523 10.6606L16.366 2.09598C16.3634 1.8659 16.1754 1.6796 15.9487 1.6796ZM17.1361 14.2046C17.1455 14.2055 27.6049 14.2115 27.6727 14.2115C29.7718 14.2115 31.4743 12.5091 31.4743 10.4091C31.4743 8.30914 29.7727 6.60754 27.6727 6.60754C27.1525 6.60754 26.6554 6.71314 26.2029 6.90201C25.9007 3.47564 23.0273 0.788452 19.5228 0.788452C18.6651 0.788452 17.8298 0.957588 17.0914 1.24262C16.8038 1.35423 16.7283 1.46841 16.7257 1.68991V13.7556C16.7283 13.9883 16.9077 14.1814 17.1361 14.2046Z" fill="#D9D9D9"/>
</svg>
