<svg width="29" height="23" viewBox="0 0 29 23" fill="none" xmlns="http://www.w3.org/2000/svg">
<path fill-rule="evenodd" clip-rule="evenodd" d="M28.5665 2.91155C27.5485 3.36381 26.4529 3.66839 25.3038 3.80592C26.4769 3.1026 27.3777 1.98948 27.8014 0.663145C26.7049 1.31477 25.4874 1.78642 24.1943 2.04209C23.1578 0.938198 21.6801 0.247803 20.0473 0.247803C16.9101 0.247803 14.3663 2.79156 14.3663 5.92879C14.3663 6.37367 14.4171 6.80748 14.514 7.22375C9.79202 6.98746 5.60627 4.72522 2.80408 1.28801C2.31489 2.12701 2.03523 3.10261 2.03523 4.14374C2.03523 6.11432 3.03667 7.85323 4.56237 8.87221C3.63015 8.84268 2.75516 8.58701 1.98815 8.16151V8.23257C1.98815 10.9858 3.94766 13.2813 6.54495 13.8047C6.06868 13.9339 5.56658 14.004 5.04878 14.004C4.68236 14.004 4.32608 13.968 3.97904 13.9016C4.70174 16.1583 6.80061 17.8012 9.28622 17.8473C7.34241 19.3703 4.8928 20.2794 2.2309 20.2794C1.77125 20.2794 1.31899 20.2526 0.875031 20.1991C3.38925 21.8106 6.37512 22.7521 9.58342 22.7521C20.0326 22.7521 25.7468 14.0954 25.7468 6.58873C25.7468 6.34229 25.7422 6.09678 25.7302 5.85404C26.8415 5.05104 27.8051 4.05052 28.5665 2.91155Z" fill="#D9D9D9"/>
</svg>
