<svg width="24" height="21" viewBox="0 0 24 21" fill="none" xmlns="http://www.w3.org/2000/svg">
<path fill-rule="evenodd" clip-rule="evenodd" d="M16.1004 6.61186C17.172 4.89247 19.0422 2.08997 21.0392 1.11208C22.6854 0.305986 24.4013 1.15152 23.9166 3.36878C23.7265 4.23814 22.7764 5.42125 22.1128 6.57836C20.9689 8.57324 19.801 11.1058 18.849 13.3987C18.1842 15 17.7024 16.3401 16.7447 17.3605C14.3941 19.8647 10.8512 17.6447 11.1188 11.6101C9.80176 13.5377 9.03406 17.7546 7.33954 19.7176C6.71044 20.4464 5.28328 21.2538 3.90387 20.8209C0.235651 19.6696 -0.41835 11.9865 0.210511 6.27751C0.471931 3.90442 1.15887 1.66103 2.52957 1.06198C3.53157 0.624078 4.94266 0.937897 5.53582 1.5635C6.73768 2.83132 6.41392 5.61225 6.39472 7.73191C7.02778 6.74855 7.88752 4.8435 8.97148 3.36892C9.94672 2.04218 11.2111 0.463911 12.493 0.159341C15.628 -0.585514 16.5557 2.88085 16.1004 6.61186Z" fill="#D9D9D9"/>
</svg>
